<svg width="20" height="20" viewBox="0 0 20 20" fill="none" xmlns="http://www.w3.org/2000/svg">
<path d="M9.99992 4.16663C3.63908 4.16663 1.72742 9.68079 1.70992 9.73663L1.62158 9.99996L1.70908 10.2633C1.72742 10.3191 3.63908 15.8333 9.99992 15.8333C16.3607 15.8333 18.2724 10.3191 18.2899 10.2633L18.3783 9.99996L18.2907 9.73663C18.2724 9.68079 16.3607 4.16663 9.99992 4.16663ZM9.99992 13.3333C8.16158 13.3333 6.66658 11.8383 6.66658 9.99996C6.66658 8.16163 8.16158 6.66663 9.99992 6.66663C11.8382 6.66663 13.3332 8.16163 13.3332 9.99996C13.3332 11.8383 11.8382 13.3333 9.99992 13.3333Z" fill="#333333"/>
<path d="M10.0002 8.33337C9.09683 8.33337 8.3335 9.09671 8.3335 10C8.3335 10.9034 9.09683 11.6667 10.0002 11.6667C10.9035 11.6667 11.6668 10.9034 11.6668 10C11.6668 9.09671 10.9035 8.33337 10.0002 8.33337Z" fill="#333333"/>
</svg>
